<?xml version="1.0" standalone="no"?>
<!DOCTYPE svg PUBLIC "-//W3C//DTD SVG 20010904//EN"
 "http://www.w3.org/TR/2001/REC-SVG-20010904/DTD/svg10.dtd">
<svg version="1.0" xmlns="http://www.w3.org/2000/svg"
 width="600.000000pt" height="800.000000pt" viewBox="0 0 600.000000 800.000000"
 preserveAspectRatio="xMidYMid meet">

<g transform="translate(0.000000,800.000000) scale(0.100000,-0.100000)"
fill="#000000" stroke="none">
<path d="M0 4000 l0 -4000 3000 0 3000 0 0 4000 0 4000 -3000 0 -3000 0 0
-4000z m2437 954 c26 -5 29 -16 39 -134 10 -124 5 -160 -21 -187 -11 -11 -12
-19 -5 -34 12 -22 60 -49 88 -49 11 0 26 -14 37 -34 l19 -34 75 1 76 1 80 -78
c44 -43 137 -129 206 -191 117 -106 140 -120 197 -124 6 -1 12 -7 12 -15 0 -8
7 -22 16 -31 23 -23 22 -118 -2 -181 -19 -49 -78 -150 -92 -156 -4 -2 -24 -24
-45 -50 -21 -27 -44 -48 -52 -48 -7 0 -15 -3 -17 -8 -4 -10 -106 -82 -116 -82
-5 0 -36 -11 -71 -25 -93 -38 -186 -57 -281 -56 -113 1 -249 25 -315 56 -28
14 -57 25 -64 25 -22 0 -105 62 -172 129 -82 81 -128 142 -154 201 -10 25 -30
62 -43 83 -13 22 -28 64 -33 95 -6 32 -16 71 -22 87 -19 51 -21 250 -3 303 9
25 16 65 16 90 0 45 31 112 75 162 13 14 30 39 39 57 9 18 22 36 30 40 8 4 28
27 44 49 17 23 46 50 65 60 20 11 59 32 89 48 29 16 67 32 83 36 30 7 180 3
222 -6z"/>
</g>
</svg>
